<mxfile host="app.diagrams.net" modified="2023-07-26T17:02:07.173Z" agent="Mozilla/5.0 (Windows NT 10.0; Win64; x64) AppleWebKit/537.36 (KHTML, like Gecko) Chrome/115.0.0.0 Safari/537.36" etag="qDL5zVrKBeWIs9xK0wzs" version="21.6.5" type="device">
  <diagram name="Page-1" id="Im3V0grFg-BByHo5ezQ1">
    <mxGraphModel dx="713" dy="1165" grid="1" gridSize="10" guides="1" tooltips="1" connect="1" arrows="1" fold="1" page="1" pageScale="1" pageWidth="850" pageHeight="1100" math="0" shadow="0">
      <root>
        <mxCell id="0" />
        <mxCell id="1" parent="0" />
        <mxCell id="jbSouinyllU802Phz8GY-1" value="OrderStaff" style="rounded=1;whiteSpace=wrap;html=1;" parent="1" vertex="1">
          <mxGeometry x="195" y="85" width="120" height="60" as="geometry" />
        </mxCell>
        <mxCell id="jbSouinyllU802Phz8GY-2" value="Customer" style="rounded=1;whiteSpace=wrap;html=1;" parent="1" vertex="1">
          <mxGeometry x="535" y="70" width="120" height="60" as="geometry" />
        </mxCell>
        <mxCell id="jbSouinyllU802Phz8GY-3" value="Orders" style="rounded=1;whiteSpace=wrap;html=1;" parent="1" vertex="1">
          <mxGeometry x="535" y="305" width="120" height="60" as="geometry" />
        </mxCell>
        <mxCell id="jbSouinyllU802Phz8GY-4" value="DeliveryDriver" style="rounded=1;whiteSpace=wrap;html=1;" parent="1" vertex="1">
          <mxGeometry x="185" y="305" width="120" height="60" as="geometry" />
        </mxCell>
        <mxCell id="jbSouinyllU802Phz8GY-5" value="Pizza" style="rounded=1;whiteSpace=wrap;html=1;" parent="1" vertex="1">
          <mxGeometry x="535" y="735" width="120" height="60" as="geometry" />
        </mxCell>
        <mxCell id="jbSouinyllU802Phz8GY-6" value="Toppings" style="rounded=1;whiteSpace=wrap;html=1;" parent="1" vertex="1">
          <mxGeometry x="535" y="965" width="120" height="60" as="geometry" />
        </mxCell>
        <mxCell id="jbSouinyllU802Phz8GY-8" value="&lt;u&gt;cPhone&amp;nbsp;&lt;/u&gt;" style="ellipse;whiteSpace=wrap;html=1;" parent="1" vertex="1">
          <mxGeometry x="665" y="40" width="90" height="30" as="geometry" />
        </mxCell>
        <mxCell id="jbSouinyllU802Phz8GY-9" value="Name" style="ellipse;whiteSpace=wrap;html=1;" parent="1" vertex="1">
          <mxGeometry x="665" y="85" width="90" height="30" as="geometry" />
        </mxCell>
        <mxCell id="jbSouinyllU802Phz8GY-11" value="&lt;u&gt;empNum&lt;/u&gt;" style="ellipse;whiteSpace=wrap;html=1;" parent="1" vertex="1">
          <mxGeometry x="75" y="52.5" width="90" height="30" as="geometry" />
        </mxCell>
        <mxCell id="jbSouinyllU802Phz8GY-12" value="Name" style="ellipse;whiteSpace=wrap;html=1;" parent="1" vertex="1">
          <mxGeometry x="75" y="97.5" width="90" height="30" as="geometry" />
        </mxCell>
        <mxCell id="jbSouinyllU802Phz8GY-13" value="oDate" style="ellipse;whiteSpace=wrap;html=1;" parent="1" vertex="1">
          <mxGeometry x="675" y="280" width="90" height="30" as="geometry" />
        </mxCell>
        <mxCell id="jbSouinyllU802Phz8GY-14" value="&lt;u&gt;orderNum&lt;/u&gt;" style="ellipse;whiteSpace=wrap;html=1;" parent="1" vertex="1">
          <mxGeometry x="675" y="240" width="90" height="30" as="geometry" />
        </mxCell>
        <mxCell id="jbSouinyllU802Phz8GY-15" value="&lt;u&gt;dPhone&amp;nbsp;&lt;/u&gt;" style="ellipse;whiteSpace=wrap;html=1;" parent="1" vertex="1">
          <mxGeometry x="75" y="250" width="90" height="30" as="geometry" />
        </mxCell>
        <mxCell id="jbSouinyllU802Phz8GY-16" value="Name" style="ellipse;whiteSpace=wrap;html=1;" parent="1" vertex="1">
          <mxGeometry x="75" y="295" width="90" height="30" as="geometry" />
        </mxCell>
        <mxCell id="jbSouinyllU802Phz8GY-17" value="model" style="ellipse;whiteSpace=wrap;html=1;" parent="1" vertex="1">
          <mxGeometry x="75" y="345" width="90" height="30" as="geometry" />
        </mxCell>
        <mxCell id="jbSouinyllU802Phz8GY-18" value="&lt;span&gt;oTime&lt;/span&gt;" style="ellipse;whiteSpace=wrap;html=1;fontStyle=0" parent="1" vertex="1">
          <mxGeometry x="675" y="320" width="90" height="30" as="geometry" />
        </mxCell>
        <mxCell id="jbSouinyllU802Phz8GY-19" value="Name" style="ellipse;whiteSpace=wrap;html=1;" parent="1" vertex="1">
          <mxGeometry x="675" y="980" width="90" height="30" as="geometry" />
        </mxCell>
        <mxCell id="jbSouinyllU802Phz8GY-20" value="&lt;u&gt;itemNum&lt;/u&gt;" style="ellipse;whiteSpace=wrap;html=1;" parent="1" vertex="1">
          <mxGeometry x="675" y="940" width="90" height="30" as="geometry" />
        </mxCell>
        <mxCell id="jbSouinyllU802Phz8GY-21" value="Price" style="ellipse;whiteSpace=wrap;html=1;" parent="1" vertex="1">
          <mxGeometry x="675" y="1015" width="90" height="30" as="geometry" />
        </mxCell>
        <mxCell id="jbSouinyllU802Phz8GY-22" value="Size" style="ellipse;whiteSpace=wrap;html=1;" parent="1" vertex="1">
          <mxGeometry x="675" y="750" width="90" height="30" as="geometry" />
        </mxCell>
        <mxCell id="jbSouinyllU802Phz8GY-23" value="&lt;u&gt;itemNum&lt;/u&gt;" style="ellipse;whiteSpace=wrap;html=1;" parent="1" vertex="1">
          <mxGeometry x="675" y="710" width="90" height="30" as="geometry" />
        </mxCell>
        <mxCell id="jbSouinyllU802Phz8GY-24" value="price" style="ellipse;whiteSpace=wrap;html=1;" parent="1" vertex="1">
          <mxGeometry x="675" y="785" width="90" height="30" as="geometry" />
        </mxCell>
        <mxCell id="jbSouinyllU802Phz8GY-25" value="Places" style="rhombus;whiteSpace=wrap;html=1;" parent="1" vertex="1">
          <mxGeometry x="555" y="175" width="80" height="80" as="geometry" />
        </mxCell>
        <mxCell id="jbSouinyllU802Phz8GY-26" value="" style="endArrow=none;html=1;rounded=0;entryX=0.5;entryY=1;entryDx=0;entryDy=0;" parent="1" source="jbSouinyllU802Phz8GY-3" target="jbSouinyllU802Phz8GY-25" edge="1">
          <mxGeometry width="50" height="50" relative="1" as="geometry">
            <mxPoint x="425" y="410" as="sourcePoint" />
            <mxPoint x="475" y="360" as="targetPoint" />
          </mxGeometry>
        </mxCell>
        <mxCell id="jbSouinyllU802Phz8GY-37" value="m" style="edgeLabel;html=1;align=center;verticalAlign=middle;resizable=0;points=[];" parent="jbSouinyllU802Phz8GY-26" vertex="1" connectable="0">
          <mxGeometry x="0.18" y="-1" relative="1" as="geometry">
            <mxPoint as="offset" />
          </mxGeometry>
        </mxCell>
        <mxCell id="jbSouinyllU802Phz8GY-27" value="1" style="endArrow=none;html=1;rounded=0;entryX=0.5;entryY=0;entryDx=0;entryDy=0;exitX=0.5;exitY=1;exitDx=0;exitDy=0;" parent="1" source="jbSouinyllU802Phz8GY-2" target="jbSouinyllU802Phz8GY-25" edge="1">
          <mxGeometry width="50" height="50" relative="1" as="geometry">
            <mxPoint x="425" y="410" as="sourcePoint" />
            <mxPoint x="475" y="360" as="targetPoint" />
          </mxGeometry>
        </mxCell>
        <mxCell id="jbSouinyllU802Phz8GY-29" value="delivers" style="rhombus;whiteSpace=wrap;html=1;" parent="1" vertex="1">
          <mxGeometry x="375" y="295" width="80" height="80" as="geometry" />
        </mxCell>
        <mxCell id="jbSouinyllU802Phz8GY-30" value="Takes" style="rhombus;whiteSpace=wrap;html=1;" parent="1" vertex="1">
          <mxGeometry x="375" y="175" width="80" height="80" as="geometry" />
        </mxCell>
        <mxCell id="jbSouinyllU802Phz8GY-31" value="" style="endArrow=none;html=1;rounded=0;entryX=0;entryY=0.5;entryDx=0;entryDy=0;exitX=1;exitY=0.5;exitDx=0;exitDy=0;" parent="1" source="jbSouinyllU802Phz8GY-4" target="jbSouinyllU802Phz8GY-29" edge="1">
          <mxGeometry width="50" height="50" relative="1" as="geometry">
            <mxPoint x="385" y="410" as="sourcePoint" />
            <mxPoint x="435" y="360" as="targetPoint" />
          </mxGeometry>
        </mxCell>
        <mxCell id="jbSouinyllU802Phz8GY-47" value="1" style="edgeLabel;html=1;align=center;verticalAlign=middle;resizable=0;points=[];" parent="jbSouinyllU802Phz8GY-31" vertex="1" connectable="0">
          <mxGeometry x="-0.0265" y="1" relative="1" as="geometry">
            <mxPoint as="offset" />
          </mxGeometry>
        </mxCell>
        <mxCell id="jbSouinyllU802Phz8GY-33" value="" style="endArrow=none;html=1;rounded=0;exitX=1;exitY=0.5;exitDx=0;exitDy=0;entryX=0;entryY=0.5;entryDx=0;entryDy=0;" parent="1" source="jbSouinyllU802Phz8GY-29" target="jbSouinyllU802Phz8GY-3" edge="1">
          <mxGeometry width="50" height="50" relative="1" as="geometry">
            <mxPoint x="525" y="480" as="sourcePoint" />
            <mxPoint x="575" y="430" as="targetPoint" />
          </mxGeometry>
        </mxCell>
        <mxCell id="jbSouinyllU802Phz8GY-43" value="1" style="edgeLabel;html=1;align=center;verticalAlign=middle;resizable=0;points=[];" parent="jbSouinyllU802Phz8GY-33" vertex="1" connectable="0">
          <mxGeometry x="-0.0069" y="2" relative="1" as="geometry">
            <mxPoint as="offset" />
          </mxGeometry>
        </mxCell>
        <mxCell id="jbSouinyllU802Phz8GY-48" value="m" style="edgeLabel;html=1;align=center;verticalAlign=middle;resizable=0;points=[];" parent="jbSouinyllU802Phz8GY-33" vertex="1" connectable="0">
          <mxGeometry x="-0.0347" y="2" relative="1" as="geometry">
            <mxPoint as="offset" />
          </mxGeometry>
        </mxCell>
        <mxCell id="jbSouinyllU802Phz8GY-34" value="orderItem" style="rounded=1;whiteSpace=wrap;html=1;" parent="1" vertex="1">
          <mxGeometry x="535" y="510" width="120" height="60" as="geometry" />
        </mxCell>
        <mxCell id="jbSouinyllU802Phz8GY-35" value="Contain" style="rhombus;whiteSpace=wrap;html=1;" parent="1" vertex="1">
          <mxGeometry x="555" y="400" width="80" height="80" as="geometry" />
        </mxCell>
        <mxCell id="jbSouinyllU802Phz8GY-36" value="is a" style="rhombus;whiteSpace=wrap;html=1;" parent="1" vertex="1">
          <mxGeometry x="555" y="610" width="80" height="80" as="geometry" />
        </mxCell>
        <mxCell id="jbSouinyllU802Phz8GY-38" value="" style="endArrow=none;html=1;rounded=0;exitX=1;exitY=1;exitDx=0;exitDy=0;entryX=0;entryY=0;entryDx=0;entryDy=0;" parent="1" source="jbSouinyllU802Phz8GY-30" target="jbSouinyllU802Phz8GY-3" edge="1">
          <mxGeometry width="50" height="50" relative="1" as="geometry">
            <mxPoint x="435" y="150" as="sourcePoint" />
            <mxPoint x="485" y="100" as="targetPoint" />
          </mxGeometry>
        </mxCell>
        <mxCell id="jbSouinyllU802Phz8GY-41" value="m" style="edgeLabel;html=1;align=center;verticalAlign=middle;resizable=0;points=[];" parent="jbSouinyllU802Phz8GY-38" vertex="1" connectable="0">
          <mxGeometry x="-0.1623" y="1" relative="1" as="geometry">
            <mxPoint y="1" as="offset" />
          </mxGeometry>
        </mxCell>
        <mxCell id="jbSouinyllU802Phz8GY-39" value="" style="endArrow=none;html=1;rounded=0;exitX=1;exitY=1;exitDx=0;exitDy=0;entryX=0;entryY=0;entryDx=0;entryDy=0;" parent="1" source="jbSouinyllU802Phz8GY-1" target="jbSouinyllU802Phz8GY-30" edge="1">
          <mxGeometry width="50" height="50" relative="1" as="geometry">
            <mxPoint x="435" y="150" as="sourcePoint" />
            <mxPoint x="485" y="100" as="targetPoint" />
          </mxGeometry>
        </mxCell>
        <mxCell id="jbSouinyllU802Phz8GY-40" value="1" style="edgeLabel;html=1;align=center;verticalAlign=middle;resizable=0;points=[];" parent="jbSouinyllU802Phz8GY-39" vertex="1" connectable="0">
          <mxGeometry x="0.1092" y="1" relative="1" as="geometry">
            <mxPoint as="offset" />
          </mxGeometry>
        </mxCell>
        <mxCell id="jbSouinyllU802Phz8GY-49" value="" style="endArrow=none;html=1;rounded=0;entryX=0.5;entryY=0;entryDx=0;entryDy=0;exitX=0.5;exitY=1;exitDx=0;exitDy=0;" parent="1" source="jbSouinyllU802Phz8GY-3" target="jbSouinyllU802Phz8GY-35" edge="1">
          <mxGeometry width="50" height="50" relative="1" as="geometry">
            <mxPoint x="535" y="320" as="sourcePoint" />
            <mxPoint x="585" y="270" as="targetPoint" />
          </mxGeometry>
        </mxCell>
        <mxCell id="jbSouinyllU802Phz8GY-51" value="1" style="edgeLabel;html=1;align=center;verticalAlign=middle;resizable=0;points=[];" parent="jbSouinyllU802Phz8GY-49" vertex="1" connectable="0">
          <mxGeometry x="-0.0154" y="-1" relative="1" as="geometry">
            <mxPoint as="offset" />
          </mxGeometry>
        </mxCell>
        <mxCell id="jbSouinyllU802Phz8GY-50" value="" style="endArrow=none;html=1;rounded=0;exitX=0.5;exitY=0;exitDx=0;exitDy=0;" parent="1" source="jbSouinyllU802Phz8GY-34" target="jbSouinyllU802Phz8GY-35" edge="1">
          <mxGeometry width="50" height="50" relative="1" as="geometry">
            <mxPoint x="515" y="460" as="sourcePoint" />
            <mxPoint x="565" y="410" as="targetPoint" />
          </mxGeometry>
        </mxCell>
        <mxCell id="jbSouinyllU802Phz8GY-52" value="m" style="edgeLabel;html=1;align=center;verticalAlign=middle;resizable=0;points=[];" parent="jbSouinyllU802Phz8GY-50" vertex="1" connectable="0">
          <mxGeometry x="0.0697" y="1" relative="1" as="geometry">
            <mxPoint as="offset" />
          </mxGeometry>
        </mxCell>
        <mxCell id="jbSouinyllU802Phz8GY-53" value="" style="endArrow=none;html=1;rounded=0;exitX=0.5;exitY=0;exitDx=0;exitDy=0;" parent="1" source="jbSouinyllU802Phz8GY-36" edge="1">
          <mxGeometry width="50" height="50" relative="1" as="geometry">
            <mxPoint x="545" y="600" as="sourcePoint" />
            <mxPoint x="595" y="570" as="targetPoint" />
          </mxGeometry>
        </mxCell>
        <mxCell id="jbSouinyllU802Phz8GY-54" value="1" style="edgeLabel;html=1;align=center;verticalAlign=middle;resizable=0;points=[];" parent="jbSouinyllU802Phz8GY-53" vertex="1" connectable="0">
          <mxGeometry x="-0.2092" relative="1" as="geometry">
            <mxPoint as="offset" />
          </mxGeometry>
        </mxCell>
        <mxCell id="jbSouinyllU802Phz8GY-56" value="" style="endArrow=none;html=1;rounded=0;exitX=0.5;exitY=0;exitDx=0;exitDy=0;entryX=0.5;entryY=1;entryDx=0;entryDy=0;" parent="1" source="jbSouinyllU802Phz8GY-5" target="jbSouinyllU802Phz8GY-36" edge="1">
          <mxGeometry width="50" height="50" relative="1" as="geometry">
            <mxPoint x="545" y="600" as="sourcePoint" />
            <mxPoint x="595" y="550" as="targetPoint" />
          </mxGeometry>
        </mxCell>
        <mxCell id="jbSouinyllU802Phz8GY-57" value="1" style="edgeLabel;html=1;align=center;verticalAlign=middle;resizable=0;points=[];" parent="jbSouinyllU802Phz8GY-56" vertex="1" connectable="0">
          <mxGeometry x="0.058" relative="1" as="geometry">
            <mxPoint as="offset" />
          </mxGeometry>
        </mxCell>
        <mxCell id="jbSouinyllU802Phz8GY-58" value="is On" style="rhombus;whiteSpace=wrap;html=1;" parent="1" vertex="1">
          <mxGeometry x="555" y="840" width="80" height="80" as="geometry" />
        </mxCell>
        <mxCell id="jbSouinyllU802Phz8GY-59" value="" style="endArrow=none;html=1;rounded=0;exitX=0.5;exitY=0;exitDx=0;exitDy=0;entryX=0.5;entryY=1;entryDx=0;entryDy=0;" parent="1" source="jbSouinyllU802Phz8GY-58" target="jbSouinyllU802Phz8GY-5" edge="1">
          <mxGeometry width="50" height="50" relative="1" as="geometry">
            <mxPoint x="525" y="790" as="sourcePoint" />
            <mxPoint x="575" y="740" as="targetPoint" />
          </mxGeometry>
        </mxCell>
        <mxCell id="jbSouinyllU802Phz8GY-62" value="n" style="edgeLabel;html=1;align=center;verticalAlign=middle;resizable=0;points=[];" parent="jbSouinyllU802Phz8GY-59" vertex="1" connectable="0">
          <mxGeometry x="0.0146" relative="1" as="geometry">
            <mxPoint as="offset" />
          </mxGeometry>
        </mxCell>
        <mxCell id="jbSouinyllU802Phz8GY-60" value="" style="endArrow=none;html=1;rounded=0;exitX=0.5;exitY=0;exitDx=0;exitDy=0;entryX=0.5;entryY=1;entryDx=0;entryDy=0;" parent="1" source="jbSouinyllU802Phz8GY-6" target="jbSouinyllU802Phz8GY-58" edge="1">
          <mxGeometry width="50" height="50" relative="1" as="geometry">
            <mxPoint x="605" y="850" as="sourcePoint" />
            <mxPoint x="605" y="805" as="targetPoint" />
          </mxGeometry>
        </mxCell>
        <mxCell id="jbSouinyllU802Phz8GY-63" value="m" style="edgeLabel;html=1;align=center;verticalAlign=middle;resizable=0;points=[];" parent="jbSouinyllU802Phz8GY-60" vertex="1" connectable="0">
          <mxGeometry x="-0.0084" y="-1" relative="1" as="geometry">
            <mxPoint as="offset" />
          </mxGeometry>
        </mxCell>
        <mxCell id="jbSouinyllU802Phz8GY-64" value="CREATED BY JOHN MARSHALL" style="text;strokeColor=none;align=center;fillColor=none;html=1;verticalAlign=middle;whiteSpace=wrap;rounded=0;fontSize=20;" parent="1" vertex="1">
          <mxGeometry x="225" y="570" width="60" height="30" as="geometry" />
        </mxCell>
        <mxCell id="jbSouinyllU802Phz8GY-70" value="&lt;u&gt;orderNum_FK&lt;/u&gt;" style="ellipse;whiteSpace=wrap;html=1;" parent="1" vertex="1">
          <mxGeometry x="685" y="505" width="90" height="30" as="geometry" />
        </mxCell>
        <mxCell id="jbSouinyllU802Phz8GY-72" value="dPhone_FK" style="ellipse;whiteSpace=wrap;html=1;" parent="1" vertex="1">
          <mxGeometry x="675" y="370" width="90" height="30" as="geometry" />
        </mxCell>
        <mxCell id="jbSouinyllU802Phz8GY-73" value="cPhone_FK" style="ellipse;whiteSpace=wrap;html=1;" parent="1" vertex="1">
          <mxGeometry x="675" y="410" width="90" height="30" as="geometry" />
        </mxCell>
        <mxCell id="jbSouinyllU802Phz8GY-74" value="empNum_FK" style="ellipse;whiteSpace=wrap;html=1;" parent="1" vertex="1">
          <mxGeometry x="675" y="450" width="90" height="30" as="geometry" />
        </mxCell>
        <mxCell id="jbSouinyllU802Phz8GY-77" value="pItemNum_FK" style="ellipse;whiteSpace=wrap;html=1;" parent="1" vertex="1">
          <mxGeometry x="425" y="865" width="90" height="30" as="geometry" />
        </mxCell>
        <mxCell id="jbSouinyllU802Phz8GY-79" value="tItemNum_FK" style="ellipse;whiteSpace=wrap;html=1;" parent="1" vertex="1">
          <mxGeometry x="425" y="820" width="90" height="30" as="geometry" />
        </mxCell>
        <mxCell id="jbSouinyllU802Phz8GY-80" value="" style="endArrow=none;html=1;rounded=0;exitX=1;exitY=0.5;exitDx=0;exitDy=0;entryX=0;entryY=0.5;entryDx=0;entryDy=0;" parent="1" source="jbSouinyllU802Phz8GY-79" target="jbSouinyllU802Phz8GY-58" edge="1">
          <mxGeometry width="50" height="50" relative="1" as="geometry">
            <mxPoint x="505" y="740" as="sourcePoint" />
            <mxPoint x="545" y="880" as="targetPoint" />
          </mxGeometry>
        </mxCell>
        <mxCell id="jbSouinyllU802Phz8GY-81" value="" style="endArrow=none;html=1;rounded=0;exitX=1;exitY=0.5;exitDx=0;exitDy=0;" parent="1" source="jbSouinyllU802Phz8GY-77" edge="1">
          <mxGeometry width="50" height="50" relative="1" as="geometry">
            <mxPoint x="515" y="750" as="sourcePoint" />
            <mxPoint x="555" y="880" as="targetPoint" />
          </mxGeometry>
        </mxCell>
        <mxCell id="jbSouinyllU802Phz8GY-82" value="" style="endArrow=none;html=1;rounded=0;exitX=0;exitY=0.5;exitDx=0;exitDy=0;entryX=1;entryY=0.5;entryDx=0;entryDy=0;" parent="1" source="jbSouinyllU802Phz8GY-20" target="jbSouinyllU802Phz8GY-6" edge="1">
          <mxGeometry width="50" height="50" relative="1" as="geometry">
            <mxPoint x="525" y="760" as="sourcePoint" />
            <mxPoint x="575" y="710" as="targetPoint" />
          </mxGeometry>
        </mxCell>
        <mxCell id="jbSouinyllU802Phz8GY-83" value="" style="endArrow=none;html=1;rounded=0;exitX=0;exitY=0.5;exitDx=0;exitDy=0;entryX=1;entryY=0.5;entryDx=0;entryDy=0;" parent="1" source="jbSouinyllU802Phz8GY-19" target="jbSouinyllU802Phz8GY-6" edge="1">
          <mxGeometry width="50" height="50" relative="1" as="geometry">
            <mxPoint x="685" y="965" as="sourcePoint" />
            <mxPoint x="665" y="1005" as="targetPoint" />
          </mxGeometry>
        </mxCell>
        <mxCell id="jbSouinyllU802Phz8GY-84" value="" style="endArrow=none;html=1;rounded=0;exitX=0;exitY=0.5;exitDx=0;exitDy=0;entryX=1;entryY=0.5;entryDx=0;entryDy=0;" parent="1" source="jbSouinyllU802Phz8GY-21" target="jbSouinyllU802Phz8GY-6" edge="1">
          <mxGeometry width="50" height="50" relative="1" as="geometry">
            <mxPoint x="695" y="975" as="sourcePoint" />
            <mxPoint x="675" y="1015" as="targetPoint" />
          </mxGeometry>
        </mxCell>
        <mxCell id="jbSouinyllU802Phz8GY-86" value="" style="endArrow=none;html=1;rounded=0;exitX=0;exitY=0.5;exitDx=0;exitDy=0;entryX=1;entryY=0.5;entryDx=0;entryDy=0;" parent="1" source="jbSouinyllU802Phz8GY-23" target="jbSouinyllU802Phz8GY-5" edge="1">
          <mxGeometry width="50" height="50" relative="1" as="geometry">
            <mxPoint x="685" y="730" as="sourcePoint" />
            <mxPoint x="665" y="770" as="targetPoint" />
          </mxGeometry>
        </mxCell>
        <mxCell id="jbSouinyllU802Phz8GY-87" value="" style="endArrow=none;html=1;rounded=0;exitX=0;exitY=0.5;exitDx=0;exitDy=0;entryX=1;entryY=0.5;entryDx=0;entryDy=0;" parent="1" source="jbSouinyllU802Phz8GY-22" target="jbSouinyllU802Phz8GY-5" edge="1">
          <mxGeometry width="50" height="50" relative="1" as="geometry">
            <mxPoint x="685" y="770" as="sourcePoint" />
            <mxPoint x="765" y="765" as="targetPoint" />
          </mxGeometry>
        </mxCell>
        <mxCell id="jbSouinyllU802Phz8GY-88" value="" style="endArrow=none;html=1;rounded=0;exitX=0;exitY=0.5;exitDx=0;exitDy=0;entryX=1;entryY=0.5;entryDx=0;entryDy=0;" parent="1" source="jbSouinyllU802Phz8GY-24" target="jbSouinyllU802Phz8GY-5" edge="1">
          <mxGeometry width="50" height="50" relative="1" as="geometry">
            <mxPoint x="685" y="805" as="sourcePoint" />
            <mxPoint x="665" y="770" as="targetPoint" />
          </mxGeometry>
        </mxCell>
        <mxCell id="jbSouinyllU802Phz8GY-90" value="" style="endArrow=none;html=1;rounded=0;entryX=0;entryY=0.5;entryDx=0;entryDy=0;exitX=1;exitY=0.5;exitDx=0;exitDy=0;" parent="1" source="jbSouinyllU802Phz8GY-34" target="jbSouinyllU802Phz8GY-70" edge="1">
          <mxGeometry width="50" height="50" relative="1" as="geometry">
            <mxPoint x="615" y="680" as="sourcePoint" />
            <mxPoint x="665" y="630" as="targetPoint" />
          </mxGeometry>
        </mxCell>
        <mxCell id="jbSouinyllU802Phz8GY-91" value="&lt;u&gt;itemNum_FK&lt;/u&gt;" style="ellipse;whiteSpace=wrap;html=1;" parent="1" vertex="1">
          <mxGeometry x="685" y="540" width="90" height="30" as="geometry" />
        </mxCell>
        <mxCell id="jbSouinyllU802Phz8GY-92" value="" style="endArrow=none;html=1;rounded=0;entryX=0;entryY=0.5;entryDx=0;entryDy=0;exitX=1;exitY=0.5;exitDx=0;exitDy=0;" parent="1" source="jbSouinyllU802Phz8GY-34" target="jbSouinyllU802Phz8GY-91" edge="1">
          <mxGeometry width="50" height="50" relative="1" as="geometry">
            <mxPoint x="605" y="540" as="sourcePoint" />
            <mxPoint x="655" y="490" as="targetPoint" />
          </mxGeometry>
        </mxCell>
        <mxCell id="jbSouinyllU802Phz8GY-93" value="" style="endArrow=none;html=1;rounded=0;entryX=0;entryY=0.5;entryDx=0;entryDy=0;exitX=1;exitY=0.5;exitDx=0;exitDy=0;" parent="1" source="jbSouinyllU802Phz8GY-3" target="jbSouinyllU802Phz8GY-74" edge="1">
          <mxGeometry width="50" height="50" relative="1" as="geometry">
            <mxPoint x="615" y="550" as="sourcePoint" />
            <mxPoint x="665" y="500" as="targetPoint" />
          </mxGeometry>
        </mxCell>
        <mxCell id="jbSouinyllU802Phz8GY-94" value="" style="endArrow=none;html=1;rounded=0;entryX=0;entryY=0.5;entryDx=0;entryDy=0;exitX=1;exitY=0.5;exitDx=0;exitDy=0;" parent="1" source="jbSouinyllU802Phz8GY-3" target="jbSouinyllU802Phz8GY-73" edge="1">
          <mxGeometry width="50" height="50" relative="1" as="geometry">
            <mxPoint x="665" y="345" as="sourcePoint" />
            <mxPoint x="685" y="475" as="targetPoint" />
          </mxGeometry>
        </mxCell>
        <mxCell id="jbSouinyllU802Phz8GY-95" value="" style="endArrow=none;html=1;rounded=0;entryX=0;entryY=0.5;entryDx=0;entryDy=0;exitX=1;exitY=0.5;exitDx=0;exitDy=0;" parent="1" source="jbSouinyllU802Phz8GY-3" target="jbSouinyllU802Phz8GY-72" edge="1">
          <mxGeometry width="50" height="50" relative="1" as="geometry">
            <mxPoint x="655" y="340" as="sourcePoint" />
            <mxPoint x="695" y="485" as="targetPoint" />
          </mxGeometry>
        </mxCell>
        <mxCell id="jbSouinyllU802Phz8GY-97" value="" style="endArrow=none;html=1;rounded=0;entryX=0;entryY=0.5;entryDx=0;entryDy=0;exitX=1;exitY=0.5;exitDx=0;exitDy=0;" parent="1" source="jbSouinyllU802Phz8GY-3" target="jbSouinyllU802Phz8GY-18" edge="1">
          <mxGeometry width="50" height="50" relative="1" as="geometry">
            <mxPoint x="695" y="375" as="sourcePoint" />
            <mxPoint x="715" y="505" as="targetPoint" />
          </mxGeometry>
        </mxCell>
        <mxCell id="jbSouinyllU802Phz8GY-98" value="" style="endArrow=none;html=1;rounded=0;entryX=0;entryY=0.5;entryDx=0;entryDy=0;exitX=1;exitY=0.5;exitDx=0;exitDy=0;" parent="1" source="jbSouinyllU802Phz8GY-3" target="jbSouinyllU802Phz8GY-13" edge="1">
          <mxGeometry width="50" height="50" relative="1" as="geometry">
            <mxPoint x="665" y="345" as="sourcePoint" />
            <mxPoint x="685" y="315" as="targetPoint" />
          </mxGeometry>
        </mxCell>
        <mxCell id="jbSouinyllU802Phz8GY-99" value="" style="endArrow=none;html=1;rounded=0;entryX=0;entryY=0.5;entryDx=0;entryDy=0;exitX=1;exitY=0.5;exitDx=0;exitDy=0;" parent="1" source="jbSouinyllU802Phz8GY-3" target="jbSouinyllU802Phz8GY-14" edge="1">
          <mxGeometry width="50" height="50" relative="1" as="geometry">
            <mxPoint x="665" y="330" as="sourcePoint" />
            <mxPoint x="695" y="325" as="targetPoint" />
          </mxGeometry>
        </mxCell>
        <mxCell id="jbSouinyllU802Phz8GY-100" value="" style="endArrow=none;html=1;rounded=0;exitX=0.993;exitY=0.539;exitDx=0;exitDy=0;entryX=0;entryY=0.5;entryDx=0;entryDy=0;exitPerimeter=0;" parent="1" source="jbSouinyllU802Phz8GY-2" target="jbSouinyllU802Phz8GY-9" edge="1">
          <mxGeometry width="50" height="50" relative="1" as="geometry">
            <mxPoint x="654.9999999999998" y="100" as="sourcePoint" />
            <mxPoint x="665" y="80" as="targetPoint" />
          </mxGeometry>
        </mxCell>
        <mxCell id="jbSouinyllU802Phz8GY-102" value="" style="endArrow=none;html=1;rounded=0;entryX=0;entryY=0.5;entryDx=0;entryDy=0;exitX=1.001;exitY=0.536;exitDx=0;exitDy=0;exitPerimeter=0;" parent="1" source="jbSouinyllU802Phz8GY-2" target="jbSouinyllU802Phz8GY-8" edge="1">
          <mxGeometry width="50" height="50" relative="1" as="geometry">
            <mxPoint x="660" y="90" as="sourcePoint" />
            <mxPoint x="685" y="110" as="targetPoint" />
          </mxGeometry>
        </mxCell>
        <mxCell id="jbSouinyllU802Phz8GY-103" value="" style="endArrow=none;html=1;rounded=0;entryX=1;entryY=0.5;entryDx=0;entryDy=0;exitX=0;exitY=0.5;exitDx=0;exitDy=0;" parent="1" source="jbSouinyllU802Phz8GY-1" target="jbSouinyllU802Phz8GY-11" edge="1">
          <mxGeometry width="50" height="50" relative="1" as="geometry">
            <mxPoint x="675" y="160" as="sourcePoint" />
            <mxPoint x="695" y="130" as="targetPoint" />
          </mxGeometry>
        </mxCell>
        <mxCell id="jbSouinyllU802Phz8GY-104" value="" style="endArrow=none;html=1;rounded=0;exitX=0;exitY=0.5;exitDx=0;exitDy=0;" parent="1" source="jbSouinyllU802Phz8GY-1" edge="1">
          <mxGeometry width="50" height="50" relative="1" as="geometry">
            <mxPoint x="205" y="125" as="sourcePoint" />
            <mxPoint x="165" y="113" as="targetPoint" />
          </mxGeometry>
        </mxCell>
        <mxCell id="jbSouinyllU802Phz8GY-106" value="" style="endArrow=none;html=1;rounded=0;entryX=1;entryY=0.5;entryDx=0;entryDy=0;exitX=0;exitY=0.5;exitDx=0;exitDy=0;" parent="1" source="jbSouinyllU802Phz8GY-4" target="jbSouinyllU802Phz8GY-15" edge="1">
          <mxGeometry width="50" height="50" relative="1" as="geometry">
            <mxPoint x="205" y="282" as="sourcePoint" />
            <mxPoint x="175" y="280" as="targetPoint" />
          </mxGeometry>
        </mxCell>
        <mxCell id="jbSouinyllU802Phz8GY-107" value="" style="endArrow=none;html=1;rounded=0;entryX=1;entryY=0.5;entryDx=0;entryDy=0;exitX=0;exitY=0.5;exitDx=0;exitDy=0;" parent="1" source="jbSouinyllU802Phz8GY-4" target="jbSouinyllU802Phz8GY-16" edge="1">
          <mxGeometry width="50" height="50" relative="1" as="geometry">
            <mxPoint x="215" y="292" as="sourcePoint" />
            <mxPoint x="185" y="290" as="targetPoint" />
          </mxGeometry>
        </mxCell>
        <mxCell id="jbSouinyllU802Phz8GY-108" value="" style="endArrow=none;html=1;rounded=0;entryX=1;entryY=0.5;entryDx=0;entryDy=0;exitX=0;exitY=0.5;exitDx=0;exitDy=0;" parent="1" source="jbSouinyllU802Phz8GY-4" target="jbSouinyllU802Phz8GY-17" edge="1">
          <mxGeometry width="50" height="50" relative="1" as="geometry">
            <mxPoint x="225" y="302" as="sourcePoint" />
            <mxPoint x="195" y="300" as="targetPoint" />
          </mxGeometry>
        </mxCell>
        <mxCell id="jgGXbFh_TVSAt6FL5fw_-1" value="&lt;u&gt;surrogateNum&lt;/u&gt;" style="ellipse;whiteSpace=wrap;html=1;" parent="1" vertex="1">
          <mxGeometry x="425" y="910" width="90" height="30" as="geometry" />
        </mxCell>
        <mxCell id="jgGXbFh_TVSAt6FL5fw_-2" value="" style="endArrow=none;html=1;rounded=0;exitX=1;exitY=0.5;exitDx=0;exitDy=0;entryX=0;entryY=0.5;entryDx=0;entryDy=0;" parent="1" source="jgGXbFh_TVSAt6FL5fw_-1" target="jbSouinyllU802Phz8GY-58" edge="1">
          <mxGeometry width="50" height="50" relative="1" as="geometry">
            <mxPoint x="525" y="890" as="sourcePoint" />
            <mxPoint x="565" y="890" as="targetPoint" />
          </mxGeometry>
        </mxCell>
        <mxCell id="jgGXbFh_TVSAt6FL5fw_-3" value="registar" style="ellipse;whiteSpace=wrap;html=1;" parent="1" vertex="1">
          <mxGeometry x="75" y="140" width="90" height="30" as="geometry" />
        </mxCell>
        <mxCell id="jgGXbFh_TVSAt6FL5fw_-4" value="paymentType" style="ellipse;whiteSpace=wrap;html=1;" parent="1" vertex="1">
          <mxGeometry x="665" y="130" width="90" height="30" as="geometry" />
        </mxCell>
        <mxCell id="jgGXbFh_TVSAt6FL5fw_-5" value="" style="endArrow=none;html=1;rounded=0;entryX=1.001;entryY=0.539;entryDx=0;entryDy=0;entryPerimeter=0;exitX=0;exitY=0.5;exitDx=0;exitDy=0;" parent="1" source="jgGXbFh_TVSAt6FL5fw_-4" target="jbSouinyllU802Phz8GY-2" edge="1">
          <mxGeometry width="50" height="50" relative="1" as="geometry">
            <mxPoint x="600" y="150" as="sourcePoint" />
            <mxPoint x="650" y="100" as="targetPoint" />
          </mxGeometry>
        </mxCell>
        <mxCell id="jgGXbFh_TVSAt6FL5fw_-6" value="" style="endArrow=none;html=1;rounded=0;exitX=1;exitY=0.5;exitDx=0;exitDy=0;entryX=0;entryY=0.5;entryDx=0;entryDy=0;" parent="1" source="jgGXbFh_TVSAt6FL5fw_-3" target="jbSouinyllU802Phz8GY-1" edge="1">
          <mxGeometry width="50" height="50" relative="1" as="geometry">
            <mxPoint x="240" y="240" as="sourcePoint" />
            <mxPoint x="290" y="190" as="targetPoint" />
          </mxGeometry>
        </mxCell>
      </root>
    </mxGraphModel>
  </diagram>
</mxfile>
